<svg width="506" height="148" viewBox="0 0 506 148" fill="none" xmlns="http://www.w3.org/2000/svg">
<path fill-rule="evenodd" clip-rule="evenodd" d="M67.6821 80.3722H101.111V147.928H134.952V67.5558H101.112L101.112 0L67.2707 2.95846e-06L67.2707 67.5538L33.8412 67.5538L33.8412 147.926H67.6821L67.6821 80.3722ZM0.000259399 80.3731H33.8412L33.8412 0.000976562L0.000259399 0.000979521V80.3731Z" fill="#00433E"/>
<rect y="125.476" width="25.6386" height="21.976" fill="#72DE88"/>
<path d="M320.954 42.1739V3.89697H336.763C345.358 3.89697 350.451 8.45943 350.451 16.152V16.205C350.451 21.2449 347.772 25.436 343.528 27.1072L351.591 42.1739H342.52L335.384 28.3008H328.965V42.1739H320.954ZM328.965 22.2264H335.888C339.867 22.2264 342.254 19.9717 342.254 16.205V16.152C342.254 12.4914 339.734 10.1571 335.782 10.1571H328.965V22.2264Z" fill="#00433E"/>
<path d="M290.356 42.1739V3.89697H315.714V10.5019H298.366V19.6799H314.733V25.94H298.366V35.5689H315.714V42.1739H290.356Z" fill="#00433E"/>
<path d="M251.269 42.1739V3.89697H259.279V19.4412H276.521V3.89697H284.532V42.1739H276.521V26.0461H259.279V42.1739H251.269Z" fill="#00433E"/>
<path d="M229.531 42.8356C218.098 42.8356 211.095 35.3819 211.095 22.9147V22.8881C211.095 10.6332 218.124 3.23242 229.345 3.23242C238.549 3.23242 244.81 8.59066 246.083 15.7792L246.162 16.1506H238.125L238.019 15.8853C236.746 12.1717 233.695 10.0231 229.371 10.0231C223.058 10.0231 219.265 14.6916 219.265 22.8086V22.8351C219.265 31.1377 223.297 36.045 229.663 36.045C234.889 36.045 238.47 32.9415 238.682 28.2199L238.709 27.6628H229.955V21.6945H246.507V26.0978C246.507 36.5225 240.194 42.8356 229.531 42.8356Z" fill="#00433E"/>
<path d="M198.456 42.1739V3.89697H206.467V42.1739H198.456Z" fill="#00433E"/>
<path d="M159.369 42.1739V3.89697H167.38V19.4412H184.622V3.89697H192.633V42.1739H184.622V26.0461H167.38V42.1739H159.369Z" fill="#00433E"/>
<path d="M285.847 93.0992V54.8223H293.858V86.4942H310.596V93.0992H285.847Z" fill="#00433E"/>
<path d="M255.249 93.0992V54.8223H280.608V61.4272H263.26V70.6052H279.626V76.8653H263.26V86.4942H280.608V93.0992H255.249Z" fill="#00433E"/>
<path d="M229.293 93.0992L216.481 54.8223H225.34L234.094 84.9027H234.253L242.98 54.8223H251.866L239.054 93.0992H229.293Z" fill="#00433E"/>
<path d="M188.322 93.0992V54.8223H213.681V61.4272H196.333V70.6052H212.699V76.8653H196.333V86.4942H213.681V93.0992H188.322Z" fill="#00433E"/>
<path d="M159.369 93.0992V54.8223H167.379V86.4942H184.117V93.0992H159.369Z" fill="#00433E"/>
<path d="M489.023 144.695C477.591 144.695 470.588 137.241 470.588 124.774V124.748C470.588 112.493 477.617 105.092 488.838 105.092C498.042 105.092 504.302 110.45 505.576 117.639L505.655 118.01H497.618L497.512 117.745C496.239 114.031 493.188 111.882 488.864 111.882C482.551 111.882 478.758 116.551 478.758 124.668V124.694C478.758 132.997 482.79 137.904 489.156 137.904C494.382 137.904 497.963 134.801 498.175 130.079L498.201 129.522H489.448V123.554H506V127.957C506 138.382 499.687 144.695 489.023 144.695Z" fill="#00433E"/>
<path d="M433.492 144.03V105.753H440.495L457.79 130.635H457.949V105.753H465.933V144.03H458.983L441.635 118.963H441.476V144.03H433.492Z" fill="#00433E"/>
<path d="M419.658 144.03V105.753H427.669V144.03H419.658Z" fill="#00433E"/>
<path d="M396.672 144.03V112.358H385.611V105.753H415.771V112.358H404.683V144.03H396.672Z" fill="#00433E"/>
<path d="M349.23 144.03V105.753H356.233L373.528 130.635H373.687V105.753H381.671V144.03H374.722L357.374 118.963H357.214V144.03H349.23Z" fill="#00433E"/>
<path d="M327.358 144.694C317.544 144.694 311.31 139.017 311.31 130.502V105.753H319.321V129.786C319.321 134.746 322.212 137.903 327.358 137.903C332.504 137.903 335.369 134.746 335.369 129.786V105.753H343.38V130.502C343.38 138.99 337.226 144.694 327.358 144.694Z" fill="#00433E"/>
<path d="M288.22 144.695C276.841 144.695 269.758 137.082 269.758 124.907V124.854C269.758 112.678 276.894 105.092 288.22 105.092C299.573 105.092 306.682 112.705 306.682 124.854V124.907C306.682 137.082 299.6 144.695 288.22 144.695ZM288.22 137.904C294.586 137.904 298.512 132.838 298.512 124.907V124.854C298.512 116.869 294.507 111.882 288.22 111.882C281.96 111.882 277.928 116.843 277.928 124.854V124.907C277.928 132.918 281.933 137.904 288.22 137.904Z" fill="#00433E"/>
<path d="M249.796 144.695C238.602 144.695 231.573 137.215 231.573 124.88V124.854C231.573 112.519 238.629 105.092 249.796 105.092C259.08 105.092 265.738 110.954 266.481 119.071L266.507 119.31H258.709L258.603 118.859C257.701 114.641 254.571 111.882 249.796 111.882C243.669 111.882 239.743 116.816 239.743 124.827V124.854C239.743 132.918 243.669 137.904 249.796 137.904C254.412 137.904 257.648 135.252 258.682 130.716L258.735 130.451H266.534L266.507 130.742C265.765 138.886 259.054 144.695 249.796 144.695Z" fill="#00433E"/>
<path d="M211.612 144.695C200.418 144.695 193.389 137.215 193.389 124.88V124.854C193.389 112.519 200.445 105.092 211.612 105.092C220.896 105.092 227.554 110.954 228.297 119.071L228.323 119.31H220.525L220.419 118.859C219.517 114.641 216.387 111.882 211.612 111.882C205.485 111.882 201.559 116.816 201.559 124.827V124.854C201.559 132.918 205.485 137.904 211.612 137.904C216.228 137.904 219.464 135.252 220.498 130.716L220.551 130.451H228.35L228.323 130.742C227.581 138.886 220.87 144.695 211.612 144.695Z" fill="#00433E"/>
<path d="M156.928 144.03L170.297 105.753H179.713L193.056 144.03H184.647L181.756 134.746H168.228L165.336 144.03H156.928ZM174.912 113.181L170.084 128.751H179.899L175.071 113.181H174.912Z" fill="#00433E"/>
</svg>
